# xmcd
#
# Track frame offsets:
# 150
# 18361
# 33322
# 44743
# 55706
# 73183
# 83854
# 99775
# 114748
# 128749
# 143155
# 156821
# 170709
# 184459
# 204235
# 219586
#
# Disc length: 3085 seconds
#
#
# Revision: 0
# Processed by: cddbd v1.5.2PL0 Copyright (c) Steve Scherf et al.
# Submitted via: FreeRIP 2.951 
#
DISCID=e40c0b10
DTITLE=LOS TUCANES - TUCANES
DYEAR=1900
DGENRE=Classical
TTITLE0=FIESTA EN LA SIERRA
TTITLE1=EL PATRON
TTITLE2=EL PARO
TTITLE3=CARRERA PROHIBIDA
TTITLE4=OPERACION PESADA
TTITLE5=EL JEFE X
TTITLE6=EL EFECTIVO
TTITLE7=MANUEL CARO CARRILLO
TTITLE8=LA PIEDRITA COLOMBIANA
TTITLE9=LA EMPRESA
TTITLE10=LA LEY 57
TTITLE11=EL PLATEADO (MARIO PERALTA)
TTITLE12=CABALLEROS DEL CAMINO
TTITLE13=EL HIJO DE LA MAFIA
TTITLE14=CARNE DE CANON
TTITLE15=LA TAMBORA VA A SONAR
EXTD=
EXTT0=
EXTT1=
EXTT2=
EXTT3=
EXTT4=
EXTT5=
EXTT6=
EXTT7=
EXTT8=
EXTT9=
EXTT10=
EXTT11=
EXTT12=
EXTT13=
EXTT14=
EXTT15=
PLAYORDER=
